<?xml version="1.0" encoding="UTF-8"?>
<svg width="4096" height="2048" viewBox="0 0 4096 2048" xmlns="http://www.w3.org/2000/svg">
  <defs>
    <linearGradient id="wallGradient" x1="0%" y1="0%" x2="0%" y2="100%">
      <stop offset="0%" style="stop-color:#f8f8f8;stop-opacity:1" />
      <stop offset="100%" style="stop-color:#e8e8e8;stop-opacity:1" />
    </linearGradient>
    <linearGradient id="floorGradient" x1="0%" y1="0%" x2="0%" y2="100%">
      <stop offset="0%" style="stop-color:#d2691e;stop-opacity:1" />
      <stop offset="100%" style="stop-color:#a0522d;stop-opacity:1" />
    </linearGradient>
    <linearGradient id="waterGradient" x1="0%" y1="0%" x2="100%" y2="0%">
      <stop offset="0%" style="stop-color:#4682b4;stop-opacity:1" />
      <stop offset="50%" style="stop-color:#87ceeb;stop-opacity:1" />
      <stop offset="100%" style="stop-color:#4682b4;stop-opacity:1" />
    </linearGradient>
    <radialGradient id="lightGradient" cx="50%" cy="20%" r="60%">
      <stop offset="0%" style="stop-color:#ffffff;stop-opacity:0.8" />
      <stop offset="100%" style="stop-color:#ffffff;stop-opacity:0" />
    </radialGradient>
    <linearGradient id="ceilingGradient" x1="0%" y1="0%" x2="0%" y2="100%">
      <stop offset="0%" style="stop-color:#ffffff;stop-opacity:1" />
      <stop offset="100%" style="stop-color:#f5f5f5;stop-opacity:1" />
    </linearGradient>
  </defs>
  
  <!-- Piso de madeira -->
  <rect x="0" y="1550" width="4096" height="498" fill="url(#floorGradient)"/>
  
  <!-- Padrão de madeira -->
  <g opacity="0.2">
    <rect x="0" y="1550" width="4096" height="6" fill="#8b4513"/>
    <rect x="0" y="1570" width="4096" height="6" fill="#8b4513"/>
    <rect x="0" y="1590" width="4096" height="6" fill="#8b4513"/>
    <rect x="0" y="1610" width="4096" height="6" fill="#8b4513"/>
    <rect x="0" y="1630" width="4096" height="6" fill="#8b4513"/>
  </g>
  
  <!-- Paredes -->
  <rect x="0" y="350" width="4096" height="1200" fill="url(#wallGradient)"/>
  
  <!-- Teto -->
  <rect x="0" y="0" width="4096" height="350" fill="url(#ceilingGradient)"/>
  
  <!-- Sofá de relaxamento em L (estilo moderno como na recepção) -->
  <g transform="translate(200, 1250)">
    <!-- Sofá principal -->
    <rect x="0" y="0" width="600" height="220" fill="#d2b48c" rx="30"/>
    <rect x="25" y="25" width="550" height="170" fill="#f5e6d3" rx="25"/>
    
    <!-- Almofadas do encosto -->
    <rect x="50" y="35" width="90" height="90" fill="#e6d7c3" rx="20"/>
    <rect x="160" y="35" width="90" height="90" fill="#e6d7c3" rx="20"/>
    <rect x="270" y="35" width="90" height="90" fill="#e6d7c3" rx="20"/>
    <rect x="380" y="35" width="90" height="90" fill="#e6d7c3" rx="20"/>
    <rect x="490" y="35" width="80" height="90" fill="#e6d7c3" rx="20"/>
    
    <!-- Almofadas do assento -->
    <rect x="50" y="110" width="90" height="70" fill="#f8f0e3" rx="15"/>
    <rect x="160" y="110" width="90" height="70" fill="#f8f0e3" rx="15"/>
    <rect x="270" y="110" width="90" height="70" fill="#f8f0e3" rx="15"/>
    <rect x="380" y="110" width="90" height="70" fill="#f8f0e3" rx="15"/>
    <rect x="490" y="110" width="80" height="70" fill="#f8f0e3" rx="15"/>
    
    <!-- Almofadas decorativas -->
    <circle cx="95" cy="70" r="22" fill="#d2b48c"/>
    <circle cx="315" cy="70" r="22" fill="#daa520"/>
    <circle cx="530" cy="70" r="20" fill="#cd853f"/>
    
    <!-- Extensão em L -->
    <rect x="600" y="0" width="220" height="400" fill="#d2b48c" rx="30"/>
    <rect x="625" y="25" width="170" height="350" fill="#f5e6d3" rx="25"/>
    
    <!-- Almofadas da extensão -->
    <rect x="640" y="40" width="140" height="80" fill="#e6d7c3" rx="20"/>
    <rect x="640" y="140" width="140" height="80" fill="#e6d7c3" rx="20"/>
    <rect x="640" y="240" width="140" height="80" fill="#e6d7c3" rx="20"/>
  </g>
  
  <!-- Fonte de água decorativa (centro da sala) -->
  <g transform="translate(1900, 1400)">
    <!-- Base circular -->
    <circle cx="100" cy="100" r="120" fill="#696969"/>
    <circle cx="100" cy="95" r="110" fill="#808080"/>
    <circle cx="100" cy="90" r="100" fill="#a9a9a9"/>
    
    <!-- Bacia de água -->
    <circle cx="100" cy="85" r="90" fill="url(#waterGradient)"/>
    
    <!-- Pilar central -->
    <rect x="85" y="20" width="30" height="65" fill="#696969"/>
    <circle cx="100" cy="20" r="18" fill="#808080"/>
    
    <!-- Jatos de água -->
    <path d="M100,20 Q95,30 100,40 Q105,50 100,60 Q95,70 100,80" stroke="#87ceeb" stroke-width="3" fill="none" opacity="0.8"/>
    <path d="M100,20 Q105,30 100,40 Q95,50 100,60 Q105,70 100,80" stroke="#87ceeb" stroke-width="3" fill="none" opacity="0.8"/>
    <path d="M100,20 Q100,30 105,40 Q100,50 95,60 Q100,70 100,80" stroke="#87ceeb" stroke-width="2" fill="none" opacity="0.6"/>
    
    <!-- Ondulações na água -->
    <circle cx="100" cy="85" r="30" fill="none" stroke="#4682b4" stroke-width="2" opacity="0.4"/>
    <circle cx="100" cy="85" r="50" fill="none" stroke="#4682b4" stroke-width="2" opacity="0.3"/>
    <circle cx="100" cy="85" r="70" fill="none" stroke="#4682b4" stroke-width="2" opacity="0.2"/>
    <circle cx="100" cy="85" r="85" fill="none" stroke="#4682b4" stroke-width="2" opacity="0.1"/>
  </g>
  
  <!-- Poltronas individuais de relaxamento -->
  <g transform="translate(2800, 1300)">
    <!-- Poltrona 1 -->
    <rect x="0" y="0" width="180" height="200" fill="#d2b48c" rx="25"/>
    <rect x="20" y="20" width="140" height="160" fill="#f5e6d3" rx="20"/>
    <circle cx="90" cy="100" r="50" fill="#e6d7c3"/>
    <circle cx="90" cy="95" r="40" fill="#f8f0e3"/>
    
    <!-- Apoio para os pés -->
    <ellipse cx="90" cy="240" rx="60" ry="30" fill="#d2b48c"/>
    <ellipse cx="90" cy="235" rx="50" ry="25" fill="#f5e6d3"/>
    
    <!-- Poltrona 2 -->
    <rect x="230" y="0" width="180" height="200" fill="#d2b48c" rx="25"/>
    <rect x="250" y="20" width="140" height="160" fill="#f5e6d3" rx="20"/>
    <circle cx="320" cy="100" r="50" fill="#e6d7c3"/>
    <circle cx="320" cy="95" r="40" fill="#f8f0e3"/>
    
    <!-- Apoio para os pés -->
    <ellipse cx="320" cy="240" rx="60" ry="30" fill="#d2b48c"/>
    <ellipse cx="320" cy="235" rx="50" ry="25" fill="#f5e6d3"/>
    
    <!-- Mesa lateral entre as poltronas -->
    <rect x="180" y="120" width="80" height="100" fill="#8b4513" rx="15"/>
    <rect x="190" y="130" width="60" height="80" fill="#a0522d" rx="10"/>
    <ellipse cx="220" cy="135" rx="25" ry="8" fill="#cd853f"/>
    
    <!-- Acessórios na mesa -->
    <circle cx="210" cy="125" r="6" fill="#4169e1"/>
    <circle cx="230" cy="125" r="6" fill="#32cd32"/>
    <rect x="215" y="115" width="10" height="8" fill="#ffffff"/>
  </g>
  
  <!-- Janelas panorâmicas com vista para jardim -->
  <g transform="translate(1000, 400)">
    <!-- Janela principal grande -->
    <rect x="0" y="0" width="1000" height="500" fill="#ffffff" rx="25"/>
    <rect x="25" y="25" width="950" height="450" fill="#e6f3ff" rx="20"/>
    
    <!-- Divisórias das janelas -->
    <rect x="495" y="25" width="15" height="450" fill="#ffffff"/>
    <rect x="25" y="245" width="950" height="15" fill="#ffffff"/>
    
    <!-- Vista do jardim tropical -->
    <rect x="40" y="40" width="470" height="220" fill="#228b22" rx="12"/>
    <circle cx="120" cy="100" r="35" fill="#32cd32"/>
    <circle cx="200" cy="80" r="40" fill="#9acd32"/>
    <circle cx="300" cy="120" r="28" fill="#32cd32"/>
    <circle cx="380" cy="90" r="32" fill="#7cfc00"/>
    <circle cx="450" cy="110" r="25" fill="#32cd32"/>
    
    <rect x="525" y="40" width="470" height="220" fill="#228b22" rx="12"/>
    <circle cx="600" cy="110" r="38" fill="#32cd32"/>
    <circle cx="700" cy="85" r="30" fill="#9acd32"/>
    <circle cx="800" cy="125" r="35" fill="#32cd32"/>
    <circle cx="880" cy="95" r="25" fill="#7cfc00"/>
    <circle cx="950" cy="115" r="28" fill="#32cd32"/>
    
    <!-- Céu com nuvens -->
    <rect x="40" y="270" width="470" height="220" fill="#87ceeb" rx="12"/>
    <circle cx="120" cy="320" r="30" fill="#ffffff" opacity="0.9"/>
    <circle cx="220" cy="310" r="35" fill="#ffffff" opacity="0.8"/>
    <circle cx="350" cy="340" r="28" fill="#ffffff" opacity="0.7"/>
    <circle cx="450" cy="320" r="32" fill="#ffffff" opacity="0.8"/>
    
    <rect x="525" y="270" width="470" height="220" fill="#87ceeb" rx="12"/>
    <circle cx="600" cy="330" r="33" fill="#ffffff" opacity="0.9"/>
    <circle cx="720" cy="320" r="25" fill="#ffffff" opacity="0.8"/>
    <circle cx="850" cy="350" r="30" fill="#ffffff" opacity="0.7"/>
    <circle cx="950" cy="325" r="28" fill="#ffffff" opacity="0.8"/>
  </g>
  
  <!-- Estação de chás e infusões -->
  <g transform="translate(3600, 900)">
    <rect x="0" y="0" width="200" height="300" fill="#ffffff" rx="15"/>
    <rect x="20" y="20" width="160" height="260" fill="#f8f8f8" rx="10"/>
    
    <!-- Dispenser de água -->
    <rect x="40" y="50" width="120" height="80" fill="#333" rx="8"/>
    <rect x="50" y="60" width="100" height="60" fill="#1a1a1a" rx="5"/>
    
    <!-- Torneiras -->
    <circle cx="80" cy="140" r="8" fill="#4169e1"/>
    <circle cx="120" cy="140" r="8" fill="#ff4500"/>
    
    <!-- Xícaras e chás -->
    <circle cx="60" cy="180" r="10" fill="#ffffff"/>
    <circle cx="85" cy="180" r="10" fill="#ffffff"/>
    <circle cx="110" cy="180" r="10" fill="#ffffff"/>
    <circle cx="135" cy="180" r="10" fill="#ffffff"/>
    
    <!-- Sachês de chá -->
    <rect x="50" y="210" width="20" height="15" fill="#228b22" rx="2"/>
    <rect x="75" y="210" width="20" height="15" fill="#8b4513" rx="2"/>
    <rect x="100" y="210" width="20" height="15" fill="#daa520" rx="2"/>
    <rect x="125" y="210" width="20" height="15" fill="#9932cc" rx="2"/>
  </g>
  
  <!-- Plantas grandes decorativas -->
  <g transform="translate(80, 1150)">
    <rect x="0" y="0" width="100" height="150" fill="#8b4513" rx="15"/>
    <ellipse cx="50" cy="20" rx="60" ry="30" fill="#654321"/>
    <circle cx="50" cy="-50" r="60" fill="#228b22"/>
    <circle cx="25" cy="-80" r="40" fill="#32cd32"/>
    <circle cx="75" cy="-75" r="45" fill="#32cd32"/>
    <circle cx="50" cy="-120" r="30" fill="#9acd32"/>
    <circle cx="30" cy="-100" r="25" fill="#7cfc00"/>
    <circle cx="70" cy="-105" r="28" fill="#7cfc00"/>
  </g>
  
  <g transform="translate(3900, 1200)">
    <rect x="0" y="0" width="100" height="150" fill="#8b4513" rx="15"/>
    <ellipse cx="50" cy="20" rx="60" ry="30" fill="#654321"/>
    <circle cx="50" cy="-50" r="60" fill="#228b22"/>
    <circle cx="30" cy="-80" r="40" fill="#32cd32"/>
    <circle cx="70" cy="-75" r="45" fill="#32cd32"/>
    <circle cx="50" cy="-120" r="30" fill="#9acd32"/>
    <circle cx="35" cy="-100" r="25" fill="#7cfc00"/>
    <circle cx="65" cy="-105" r="28" fill="#7cfc00"/>
  </g>
  
  <!-- Iluminação ambiente no teto -->
  <circle cx="600" cy="175" r="40" fill="#ffffff" opacity="0.7"/>
  <circle cx="1200" cy="175" r="45" fill="#ffffff" opacity="0.8"/>
  <circle cx="2048" cy="175" r="50" fill="#ffffff" opacity="0.9"/>
  <circle cx="2900" cy="175" r="45" fill="#ffffff" opacity="0.8"/>
  <circle cx="3500" cy="175" r="40" fill="#ffffff" opacity="0.7"/>
  
  <!-- Spots direcionais -->
  <circle cx="500" cy="250" r="10" fill="#fff8dc" opacity="0.5"/>
  <circle cx="1000" cy="250" r="10" fill="#fff8dc" opacity="0.5"/>
  <circle cx="1500" cy="250" r="10" fill="#fff8dc" opacity="0.5"/>
  <circle cx="2500" cy="250" r="10" fill="#fff8dc" opacity="0.5"/>
  <circle cx="3000" cy="250" r="10" fill="#fff8dc" opacity="0.5"/>
  <circle cx="3600" cy="250" r="10" fill="#fff8dc" opacity="0.5"/>
  
  <!-- Efeitos de iluminação suave -->
  <ellipse cx="2048" cy="600" rx="1200" ry="600" fill="url(#lightGradient)"/>
  <ellipse cx="600" cy="700" rx="400" ry="200" fill="url(#lightGradient)" opacity="0.3"/>
  <ellipse cx="3400" cy="700" rx="400" ry="200" fill="url(#lightGradient)" opacity="0.3"/>
  
  <!-- Reflexos suaves no piso -->
  <ellipse cx="2048" cy="1750" rx="400" ry="50" fill="#ffffff" opacity="0.1"/>
  <ellipse cx="500" cy="1700" rx="200" ry="30" fill="#ffffff" opacity="0.08"/>
  <ellipse cx="3200" cy="1700" rx="180" ry="25" fill="#ffffff" opacity="0.08"/>
  <ellipse cx="2000" cy="1700" rx="150" ry="20" fill="#ffffff" opacity="0.06"/>
</svg>