<?xml version="1.0" encoding="UTF-8"?>
<svg width="4096" height="2048" viewBox="0 0 4096 2048" xmlns="http://www.w3.org/2000/svg">
  <!-- Background gradient -->
  <defs>
    <linearGradient id="wallGradient" x1="0%" y1="0%" x2="0%" y2="100%">
      <stop offset="0%" style="stop-color:#f5f5f5;stop-opacity:1" />
      <stop offset="100%" style="stop-color:#e8e8e8;stop-opacity:1" />
    </linearGradient>
    <linearGradient id="floorGradient" x1="0%" y1="0%" x2="0%" y2="100%">
      <stop offset="0%" style="stop-color:#d2691e;stop-opacity:1" />
      <stop offset="100%" style="stop-color:#a0522d;stop-opacity:1" />
    </linearGradient>
    <linearGradient id="lightGradient" cx="50%" cy="20%" r="50%">
      <stop offset="0%" style="stop-color:#ffffff;stop-opacity:0.9" />
      <stop offset="100%" style="stop-color:#ffffff;stop-opacity:0" />
    </linearGradient>
    <linearGradient id="carpetGradient" x1="0%" y1="0%" x2="0%" y2="100%">
      <stop offset="0%" style="stop-color:#696969;stop-opacity:1" />
      <stop offset="100%" style="stop-color:#555555;stop-opacity:1" />
    </linearGradient>
  </defs>
  
  <!-- Floor -->
  <rect x="0" y="1400" width="4096" height="648" fill="url(#floorGradient)"/>
  
  <!-- Walls -->
  <rect x="0" y="200" width="4096" height="1200" fill="url(#wallGradient)"/>
  
  <!-- Reception Desk (center) -->
  <g transform="translate(1848, 1200)">
    <!-- Desk base -->
    <rect x="0" y="0" width="400" height="200" fill="#654321" rx="10"/>
    <rect x="10" y="10" width="380" height="180" fill="#8b4513" rx="5"/>
    
    <!-- Desk top -->
    <ellipse cx="200" cy="20" rx="220" ry="40" fill="#a0522d"/>
    
    <!-- Computer monitor -->
    <rect x="150" y="-80" width="100" height="60" fill="#2c2c2c" rx="5"/>
    <rect x="155" y="-75" width="90" height="50" fill="#000"/>
    
    <!-- Decorative plant -->
    <circle cx="80" cy="-20" r="25" fill="#228b22"/>
    <rect x="75" y="-20" width="10" height="30" fill="#8b4513"/>
  </g>
  
  <!-- Seating area (left side) -->
  <g transform="translate(400, 1100)">
    <!-- Sofa -->
    <rect x="0" y="0" width="300" height="150" fill="#cd853f" rx="15"/>
    <rect x="20" y="20" width="260" height="110" fill="#daa520" rx="10"/>
    
    <!-- Cushions -->
    <circle cx="80" cy="75" r="35" fill="#f4a460"/>
    <circle cx="160" cy="75" r="35" fill="#f4a460"/>
    <circle cx="240" cy="75" r="35" fill="#f4a460"/>
    
    <!-- Coffee table -->
    <ellipse cx="150" cy="200" rx="80" ry="40" fill="#8b4513"/>
    <rect x="140" y="240" width="20" height="40" fill="#654321"/>
  </g>
  
  <!-- Seating area (right side) -->
  <g transform="translate(3200, 1100)">
    <!-- Armchair -->
    <rect x="0" y="0" width="200" height="150" fill="#cd853f" rx="15"/>
    <rect x="15" y="15" width="170" height="120" fill="#daa520" rx="10"/>
    <circle cx="100" cy="75" r="40" fill="#f4a460"/>
    
    <!-- Side table -->
    <circle cx="250" cy="200" r="30" fill="#8b4513"/>
    <rect x="245" y="230" width="10" height="30" fill="#654321"/>
  </g>
  
  <!-- Wall decorations -->
  <!-- Artwork 1 -->
  <g transform="translate(800, 400)">
    <rect x="0" y="0" width="200" height="300" fill="#8b4513" rx="10"/>
    <rect x="20" y="20" width="160" height="260" fill="#f5deb3" rx="5"/>
    <circle cx="100" cy="140" r="60" fill="#daa520"/>
  </g>
  
  <!-- Artwork 2 -->
  <g transform="translate(3000, 400)">
    <rect x="0" y="0" width="200" height="300" fill="#8b4513" rx="10"/>
    <rect x="20" y="20" width="160" height="260" fill="#f5deb3" rx="5"/>
    <rect x="40" y="40" width="120" height="220" fill="#cd853f"/>
  </g>
  
  <!-- Chandelier -->
  <g transform="translate(2048, 100)">
    <circle cx="0" cy="0" r="80" fill="#ffd700" opacity="0.7"/>
    <circle cx="0" cy="0" r="60" fill="#ffff00" opacity="0.5"/>
    <circle cx="0" cy="0" r="40" fill="#fff8dc" opacity="0.8"/>
  </g>
  
  <!-- Potted plants -->
  <g transform="translate(200, 1000)">
    <rect x="0" y="0" width="80" height="100" fill="#8b4513" rx="5"/>
    <ellipse cx="40" cy="10" rx="45" ry="20" fill="#654321"/>
    <circle cx="40" cy="-30" r="40" fill="#228b22"/>
    <circle cx="20" cy="-50" r="25" fill="#32cd32"/>
    <circle cx="60" cy="-45" r="30" fill="#32cd32"/>
  </g>
  
  <g transform="translate(3800, 1000)">
    <rect x="0" y="0" width="80" height="100" fill="#8b4513" rx="5"/>
    <ellipse cx="40" cy="10" rx="45" ry="20" fill="#654321"/>
    <circle cx="40" cy="-30" r="40" fill="#228b22"/>
    <circle cx="25" cy="-50" r="25" fill="#32cd32"/>
    <circle cx="55" cy="-45" r="30" fill="#32cd32"/>
  </g>
  
  <!-- Ceiling -->
  <rect x="0" y="0" width="4096" height="200" fill="#f8f8ff"/>
  
  <!-- Lighting effects -->
  <ellipse cx="2048" cy="300" rx="800" ry="400" fill="url(#lightGradient)"/>
  <ellipse cx="1024" cy="400" rx="400" ry="200" fill="url(#lightGradient)" opacity="0.3"/>
  <ellipse cx="3072" cy="400" rx="400" ry="200" fill="url(#lightGradient)" opacity="0.3"/>
  
  <!-- Floor reflections -->
  <ellipse cx="2048" cy="1600" rx="300" ry="50" fill="#ffffff" opacity="0.1"/>
  <ellipse cx="550" cy="1550" rx="200" ry="30" fill="#ffffff" opacity="0.08"/>
  <ellipse cx="3400" cy="1550" rx="150" ry="25" fill="#ffffff" opacity="0.08"/>
</svg>