<?xml version="1.0" encoding="UTF-8"?>
<svg width="4096" height="2048" viewBox="0 0 4096 2048" xmlns="http://www.w3.org/2000/svg">
  <!-- Background gradient -->
  <defs>
    <linearGradient id="wallGradient" x1="0%" y1="0%" x2="0%" y2="100%">
      <stop offset="0%" style="stop-color:#f0ede6;stop-opacity:1" />
      <stop offset="100%" style="stop-color:#e6ddd1;stop-opacity:1" />
    </linearGradient>
    <linearGradient id="floorGradient" x1="0%" y1="0%" x2="0%" y2="100%">
      <stop offset="0%" style="stop-color:#8b4513;stop-opacity:1" />
      <stop offset="100%" style="stop-color:#654321;stop-opacity:1" />
    </linearGradient>
    <radialGradient id="lightGradient" cx="50%" cy="20%" r="50%">
      <stop offset="0%" style="stop-color:#fff8dc;stop-opacity:0.6" />
      <stop offset="100%" style="stop-color:#fff8dc;stop-opacity:0" />
    </radialGradient>
  </defs>
  
  <!-- Floor -->
  <rect x="0" y="1500" width="4096" height="548" fill="url(#floorGradient)"/>
  
  <!-- Walls -->
  <rect x="0" y="150" width="4096" height="1350" fill="url(#wallGradient)"/>
  
  <!-- Massage Table (center) -->
  <g transform="translate(1848, 1300)">
    <!-- Table base -->
    <rect x="0" y="0" width="400" height="180" fill="#8b4513" rx="20"/>
    <rect x="20" y="20" width="360" height="140" fill="#daa520" rx="15"/>
    
    <!-- Cushion -->
    <ellipse cx="200" cy="80" rx="180" ry="70" fill="#f4a460"/>
    <ellipse cx="200" cy="70" rx="170" ry="60" fill="#f5deb3"/>
    
    <!-- Pillow -->
    <ellipse cx="200" cy="40" rx="60" ry="30" fill="#fff8dc"/>
  </g>
  
  <!-- Essential oils cabinet (left) -->
  <g transform="translate(300, 1000)">
    <rect x="0" y="0" width="200" height="400" fill="#654321" rx="10"/>
    <rect x="20" y="20" width="160" height="360" fill="#8b4513" rx="5"/>
    
    <!-- Shelves -->
    <rect x="30" y="80" width="140" height="5" fill="#a0522d"/>
    <rect x="30" y="160" width="140" height="5" fill="#a0522d"/>
    <rect x="30" y="240" width="140" height="5" fill="#a0522d"/>
    <rect x="30" y="320" width="140" height="5" fill="#a0522d"/>
    
    <!-- Bottles -->
    <circle cx="60" cy="50" r="12" fill="#8b4513"/>
    <circle cx="90" cy="50" r="12" fill="#cd853f"/>
    <circle cx="120" cy="50" r="12" fill="#daa520"/>
    <circle cx="150" cy="50" r="12" fill="#8b4513"/>
    
    <circle cx="60" cy="130" r="12" fill="#228b22"/>
    <circle cx="90" cy="130" r="12" fill="#32cd32"/>
    <circle cx="120" cy="130" r="12" fill="#9acd32"/>
    <circle cx="150" cy="130" r="12" fill="#228b22"/>
  </g>
  
  <!-- Towel rack (right) -->
  <g transform="translate(3500, 1100)">
    <rect x="0" y="0" width="150" height="300" fill="#8b4513" rx="5"/>
    <rect x="20" y="20" width="110" height="260" fill="#daa520" rx="3"/>
    
    <!-- Towels -->
    <rect x="30" y="50" width="90" height="40" fill="#fff8dc" rx="5"/>
    <rect x="30" y="100" width="90" height="40" fill="#f5deb3" rx="5"/>
    <rect x="30" y="150" width="90" height="40" fill="#fff8dc" rx="5"/>
    <rect x="30" y="200" width="90" height="40" fill="#f5deb3" rx="5"/>
  </g>
  
  <!-- Candles (ambient lighting) -->
  <g transform="translate(800, 1200)">
    <rect x="0" y="0" width="20" height="50" fill="#daa520" rx="2"/>
    <ellipse cx="10" cy="5" rx="8" ry="3" fill="#8b4513"/>
    <circle cx="10" cy="-5" r="3" fill="#ffa500" opacity="0.8"/>
    
    <rect x="40" y="0" width="20" height="45" fill="#daa520" rx="2"/>
    <ellipse cx="50" cy="5" rx="8" ry="3" fill="#8b4513"/>
    <circle cx="50" cy="-5" r="3" fill="#ffa500" opacity="0.8"/>
    
    <rect x="80" y="0" width="20" height="55" fill="#daa520" rx="2"/>
    <ellipse cx="90" cy="5" rx="8" ry="3" fill="#8b4513"/>
    <circle cx="90" cy="-5" r="3" fill="#ffa500" opacity="0.8"/>
  </g>
  
  <!-- Sound system -->
  <g transform="translate(3200, 400)">
    <rect x="0" y="0" width="150" height="80" fill="#2c2c2c" rx="5"/>
    <rect x="10" y="10" width="130" height="60" fill="#000"/>
    <circle cx="40" cy="40" r="15" fill="#333"/>
    <circle cx="110" cy="40" r="15" fill="#333"/>
    <rect x="70" y="30" width="30" height="5" fill="#666"/>
    <rect x="70" y="40" width="30" height="5" fill="#666"/>
    <rect x="70" y="50" width="30" height="5" fill="#666"/>
  </g>
  
  <!-- Wall art -->
  <g transform="translate(1200, 300)">
    <rect x="0" y="0" width="300" height="200" fill="#8b4513" rx="10"/>
    <rect x="20" y="20" width="260" height="160" fill="#f5deb3" rx="5"/>
    <circle cx="150" cy="100" r="60" fill="#cd853f"/>
    <circle cx="120" cy="80" r="25" fill="#daa520"/>
    <circle cx="180" cy="120" r="30" fill="#8b4513"/>
  </g>
  
  <!-- Plants -->
  <g transform="translate(100, 900)">
    <rect x="0" y="0" width="60" height="80" fill="#8b4513" rx="5"/>
    <ellipse cx="30" cy="10" rx="35" ry="15" fill="#654321"/>
    <circle cx="30" cy="-20" r="30" fill="#228b22"/>
    <circle cx="15" cy="-35" r="20" fill="#32cd32"/>
    <circle cx="45" cy="-30" r="25" fill="#32cd32"/>
  </g>
  
  <g transform="translate(3800, 900)">
    <rect x="0" y="0" width="60" height="80" fill="#8b4513" rx="5"/>
    <ellipse cx="30" cy="10" rx="35" ry="15" fill="#654321"/>
    <circle cx="30" cy="-20" r="30" fill="#228b22"/>
    <circle cx="20" cy="-35" r="20" fill="#32cd32"/>
    <circle cx="40" cy="-30" r="25" fill="#32cd32"/>
  </g>
  
  <!-- Ceiling -->
  <rect x="0" y="0" width="4096" height="150" fill="#f8f8ff"/>
  
  <!-- Ceiling lights -->
  <circle cx="1024" cy="75" r="40" fill="#fff8dc" opacity="0.6"/>
  <circle cx="2048" cy="75" r="50" fill="#fff8dc" opacity="0.7"/>
  <circle cx="3072" cy="75" r="40" fill="#fff8dc" opacity="0.6"/>
  
  <!-- Ambient lighting -->
  <ellipse cx="2048" cy="300" rx="600" ry="300" fill="url(#lightGradient)"/>
  <ellipse cx="1024" cy="400" rx="300" ry="150" fill="url(#lightGradient)" opacity="0.3"/>
  <ellipse cx="3072" cy="400" rx="300" ry="150" fill="url(#lightGradient)" opacity="0.3"/>
  
  <!-- Floor reflections -->
  <ellipse cx="2048" cy="1650" rx="200" ry="30" fill="#ffffff" opacity="0.1"/>
  <ellipse cx="450" cy="1600" rx="100" ry="20" fill="#ffffff" opacity="0.08"/>
  <ellipse cx="3600" cy="1600" rx="80" ry="15" fill="#ffffff" opacity="0.08"/>
</svg>