<?xml version="1.0" encoding="UTF-8"?>
<svg width="4096" height="2048" viewBox="0 0 4096 2048" xmlns="http://www.w3.org/2000/svg">
  <defs>
    <linearGradient id="wallGradient" x1="0%" y1="0%" x2="0%" y2="100%">
      <stop offset="0%" style="stop-color:#f9f9f9;stop-opacity:1" />
      <stop offset="100%" style="stop-color:#ebe9e7;stop-opacity:1" />
    </linearGradient>
    <linearGradient id="floorGradient" x1="0%" y1="0%" x2="0%" y2="100%">
      <stop offset="0%" style="stop-color:#d2691e;stop-opacity:1" />
      <stop offset="100%" style="stop-color:#a0522d;stop-opacity:1" />
    </linearGradient>
    <radialGradient id="softLight" cx="50%" cy="25%" r="70%">
      <stop offset="0%" style="stop-color:#fff8dc;stop-opacity:0.3" />
      <stop offset="100%" style="stop-color:#fff8dc;stop-opacity:0" />
    </radialGradient>
    <radialGradient id="incenseSmoke" cx="50%" cy="100%" r="40%">
      <stop offset="0%" style="stop-color:#e0e0e0;stop-opacity:0.4" />
      <stop offset="100%" style="stop-color:#e0e0e0;stop-opacity:0" />
    </radialGradient>
    <linearGradient id="ceilingGradient" x1="0%" y1="0%" x2="0%" y2="100%">
      <stop offset="0%" style="stop-color:#ffffff;stop-opacity:1" />
      <stop offset="100%" style="stop-color:#f8f8f8;stop-opacity:1" />
    </linearGradient>
  </defs>
  
  <!-- Piso de madeira -->
  <rect x="0" y="1500" width="4096" height="548" fill="url(#floorGradient)"/>
  
  <!-- Padrão sutil de madeira -->
  <g opacity="0.15">
    <rect x="0" y="1500" width="4096" height="5" fill="#8b4513"/>
    <rect x="0" y="1520" width="4096" height="5" fill="#8b4513"/>
    <rect x="0" y="1540" width="4096" height="5" fill="#8b4513"/>
    <rect x="0" y="1560" width="4096" height="5" fill="#8b4513"/>
    <rect x="0" y="1580" width="4096" height="5" fill="#8b4513"/>
    <rect x="0" y="1600" width="4096" height="5" fill="#8b4513"/>
  </g>
  
  <!-- Paredes -->
  <rect x="0" y="400" width="4096" height="1100" fill="url(#wallGradient)"/>
  
  <!-- Teto -->
  <rect x="0" y="0" width="4096" height="400" fill="url(#ceilingGradient)"/>
  
  <!-- Altar de meditação central -->
  <g transform="translate(1850, 1350)">
    <!-- Base do altar -->
    <rect x="0" y="0" width="400" height="150" fill="#8b4513" rx="15"/>
    <rect x="20" y="20" width="360" height="110" fill="#a0522d" rx="12"/>
    
    <!-- Superfície do altar -->
    <ellipse cx="200" cy="30" rx="180" ry="40" fill="#cd853f"/>
    <ellipse cx="200" cy="25" rx="170" ry="35" fill="#daa520"/>
    
    <!-- Estátua de Buda -->
    <circle cx="200" cy="0" r="35" fill="#d4af37"/>
    <rect x="180" y="-10" width="40" height="30" fill="#daa520" rx="5"/>
    <circle cx="200" cy="-15" r="12" fill="#f4a460"/>
    
    <!-- Tigelas de oferendas -->
    <ellipse cx="120" cy="20" rx="18" ry="8" fill="#8b4513"/>
    <ellipse cx="120" cy="18" rx="15" ry="6" fill="#a0522d"/>
    
    <ellipse cx="280" cy="20" rx="18" ry="8" fill="#8b4513"/>
    <ellipse cx="280" cy="18" rx="15" ry="6" fill="#a0522d"/>
    
    <!-- Incenso -->
    <rect x="150" y="15" width="20" height="8" fill="#654321" rx="2"/>
    <rect x="159" y="-15" width="2" height="30" fill="#8b4513"/>
    <!-- Fumaça do incenso -->
    <path d="M160,-15 Q158,-25 160,-35 Q162,-45 160,-55 Q158,-65 160,-75" stroke="#d3d3d3" stroke-width="1.5" fill="none" opacity="0.6"/>
    <path d="M160,-15 Q162,-25 160,-35 Q158,-45 160,-55 Q162,-65 160,-75" stroke="#d3d3d3" stroke-width="1" fill="none" opacity="0.4"/>
    
    <!-- Velas -->
    <rect x="80" y="10" width="12" height="25" fill="#f5deb3" rx="2"/>
    <circle cx="86" cy="5" r="3" fill="#ffa500" opacity="0.9"/>
    
    <rect x="250" y="10" width="12" height="25" fill="#f5deb3" rx="2"/>
    <circle cx="256" cy="5" r="3" fill="#ffa500" opacity="0.9"/>
    
    <rect x="320" y="10" width="12" height="25" fill="#f5deb3" rx="2"/>
    <circle cx="326" cy="5" r="3" fill="#ffa500" opacity="0.9"/>
  </g>
  
  <!-- Círculo de almofadas de meditação -->
  <g transform="translate(1500, 1550)">
    <!-- Almofada central (instrutor) -->
    <circle cx="300" cy="-100" r="60" fill="#8b4513"/>
    <circle cx="300" cy="-100" r="45" fill="#cd853f"/>
    <circle cx="300" cy="-100" r="30" fill="#daa520"/>
    
    <!-- Almofadas dos participantes (dispostas em círculo) -->
    <!-- Posição 12h -->
    <circle cx="300" cy="-250" r="45" fill="#d2691e"/>
    <circle cx="300" cy="-250" r="32" fill="#daa520"/>
    
    <!-- Posição 2h -->
    <circle cx="430" cy="-200" r="45" fill="#cd853f"/>
    <circle cx="430" cy="-200" r="32" fill="#f4a460"/>
    
    <!-- Posição 4h -->
    <circle cx="480" cy="-50" r="45" fill="#8b4513"/>
    <circle cx="480" cy="-50" r="32" fill="#a0522d"/>
    
    <!-- Posição 6h -->
    <circle cx="300" cy="50" r="45" fill="#daa520"/>
    <circle cx="300" cy="50" r="32" fill="#f4a460"/>
    
    <!-- Posição 8h -->
    <circle cx="120" cy="-50" r="45" fill="#d2691e"/>
    <circle cx="120" cy="-50" r="32" fill="#cd853f"/>
    
    <!-- Posição 10h -->
    <circle cx="170" cy="-200" r="45" fill="#8b4513"/>
    <circle cx="170" cy="-200" r="32" fill="#daa520"/>
    
    <!-- Almofadas adicionais -->
    <circle cx="450" cy="-120" r="40" fill="#cd853f"/>
    <circle cx="450" cy="-120" r="28" fill="#f4a460"/>
    
    <circle cx="150" cy="-120" r="40" fill="#d2691e"/>
    <circle cx="150" cy="-120" r="28" fill="#daa520"/>
  </g>
  
  <!-- Tapeçarias e arte nas paredes -->
  <g transform="translate(600, 500)">
    <!-- Tapeçaria 1 -->
    <rect x="0" y="0" width="250" height="350" fill="#8b4513" rx="15"/>
    <rect x="25" y="25" width="200" height="300" fill="#f5deb3" rx="10"/>
    
    <!-- Padrão mandala -->
    <circle cx="125" cy="175" r="80" fill="#cd853f"/>
    <circle cx="125" cy="175" r="60" fill="#daa520"/>
    <circle cx="125" cy="175" r="40" fill="#8b4513"/>
    <circle cx="125" cy="175" r="20" fill="#654321"/>
    
    <!-- Elementos decorativos -->
    <circle cx="85" cy="135" r="12" fill="#cd853f"/>
    <circle cx="165" cy="135" r="12" fill="#cd853f"/>
    <circle cx="85" cy="215" r="12" fill="#cd853f"/>
    <circle cx="165" cy="215" r="12" fill="#cd853f"/>
    
    <circle cx="105" cy="105" r="8" fill="#daa520"/>
    <circle cx="145" cy="105" r="8" fill="#daa520"/>
    <circle cx="105" cy="245" r="8" fill="#daa520"/>
    <circle cx="145" cy="245" r="8" fill="#daa520"/>
  </g>
  
  <g transform="translate(3200, 500)">
    <!-- Tapeçaria 2 -->
    <rect x="0" y="0" width="250" height="350" fill="#8b4513" rx="15"/>
    <rect x="25" y="25" width="200" height="300" fill="#f5deb3" rx="10"/>
    
    <!-- Padrão geométrico africano -->
    <polygon points="125,75 175,125 125,175 75,125" fill="#cd853f"/>
    <polygon points="125,95 155,125 125,155 95,125" fill="#daa520"/>
    <polygon points="125,105 145,125 125,145 105,125" fill="#8b4513"/>
    
    <rect x="75" y="200" width="100" height="15" fill="#cd853f"/>
    <rect x="75" y="225" width="100" height="15" fill="#daa520"/>
    <rect x="75" y="250" width="100" height="15" fill="#8b4513"/>
    <rect x="75" y="275" width="100" height="15" fill="#654321"/>
  </g>
  
  <!-- Tigelas cantantes -->
  <g transform="translate(250, 1300)">
    <!-- Tigela grande -->
    <ellipse cx="0" cy="0" rx="50" ry="18" fill="#8b4513"/>
    <ellipse cx="0" cy="-6" rx="45" ry="15" fill="#daa520"/>
    <ellipse cx="0" cy="-10" rx="40" ry="12" fill="#cd853f"/>
    
    <!-- Tigela média -->
    <ellipse cx="120" cy="0" rx="40" ry="15" fill="#cd853f"/>
    <ellipse cx="120" cy="-5" rx="35" ry="12" fill="#daa520"/>
    <ellipse cx="120" cy="-8" rx="30" ry="10" fill="#f4a460"/>
    
    <!-- Tigela pequena -->
    <ellipse cx="60" cy="70" rx="30" ry="12" fill="#daa520"/>
    <ellipse cx="60" cy="67" rx="25" ry="10" fill="#f4a460"/>
    <ellipse cx="60" cy="65" rx="20" ry="8" fill="#f5deb3"/>
    
    <!-- Baqueta -->
    <rect x="25" y="-40" width="4" height="35" fill="#654321"/>
    <circle cx="27" cy="-42" r="6" fill="#8b4513"/>
  </g>
  
  <!-- Difusor de óleos essenciais -->
  <g transform="translate(3800, 1350)">
    <rect x="0" y="0" width="80" height="100" fill="#ffffff" rx="8"/>
    <rect x="10" y="10" width="60" height="80" fill="#f8f8f8" rx="5"/>
    
    <!-- Display LED -->
    <rect x="20" y="25" width="40" height="15" fill="#000"/>
    <circle cx="25" cy="32" r="2" fill="#00ff00"/>
    <circle cx="30" cy="32" r="2" fill="#00ff00"/>
    <circle cx="35" cy="32" r="2" fill="#00ff00"/>
    
    <!-- Vapor/névoa -->
    <path d="M40,10 Q38,0 40,-10 Q42,-20 40,-30 Q38,-40 40,-50" stroke="#e6e6e6" stroke-width="2" fill="none" opacity="0.7"/>
    <path d="M40,10 Q42,0 40,-10 Q38,-20 40,-30 Q42,-40 40,-50" stroke="#e6e6e6" stroke-width="1.5" fill="none" opacity="0.5"/>
    <path d="M40,10 Q40,0 42,-10 Q40,-20 38,-30 Q40,-40 40,-50" stroke="#e6e6e6" stroke-width="1" fill="none" opacity="0.3"/>
    
    <!-- Botão de controle -->
    <circle cx="40" cy="60" r="8" fill="#4169e1"/>
    <circle cx="40" cy="60" r="5" fill="#87ceeb"/>
  </g>
  
  <!-- Plantas purificadoras do ar -->
  <g transform="translate(80, 1200)">
    <rect x="0" y="0" width="90" height="130" fill="#8b4513" rx="10"/>
    <ellipse cx="45" cy="20" rx="55" ry="25" fill="#654321"/>
    <circle cx="45" cy="-40" r="50" fill="#228b22"/>
    <circle cx="25" cy="-70" r="35" fill="#32cd32"/>
    <circle cx="65" cy="-65" r="40" fill="#32cd32"/>
    <circle cx="45" cy="-100" r="25" fill="#9acd32"/>
    <circle cx="30" cy="-85" r="20" fill="#7cfc00"/>
    <circle cx="60" cy="-90" r="22" fill="#7cfc00"/>
  </g>
  
  <g transform="translate(3920, 1200)">
    <rect x="0" y="0" width="90" height="130" fill="#8b4513" rx="10"/>
    <ellipse cx="45" cy="20" rx="55" ry="25" fill="#654321"/>
    <circle cx="45" cy="-40" r="50" fill="#228b22"/>
    <circle cx="30" cy="-70" r="35" fill="#32cd32"/>
    <circle cx="60" cy="-65" r="40" fill="#32cd32"/>
    <circle cx="45" cy="-100" r="25" fill="#9acd32"/>
    <circle cx="35" cy="-85" r="20" fill="#7cfc00"/>
    <circle cx="55" cy="-90" r="22" fill="#7cfc00"/>
  </g>
  
  <!-- Janela com vista serena -->
  <g transform="translate(1400, 450)">
    <rect x="0" y="0" width="600" height="400" fill="#ffffff" rx="20"/>
    <rect x="20" y="20" width="560" height="360" fill="#e6f3ff" rx="15"/>
    
    <!-- Divisórias -->
    <rect x="295" y="20" width="10" height="360" fill="#ffffff"/>
    <rect x="20" y="195" width="560" height="10" fill="#ffffff"/>
    
    <!-- Vista de jardim zen -->
    <rect x="30" y="30" width="270" height="170" fill="#9acd32" rx="8"/>
    <circle cx="80" cy="80" r="20" fill="#32cd32"/>
    <circle cx="140" cy="70" r="25" fill="#228b22"/>
    <circle cx="200" cy="85" r="18" fill="#32cd32"/>
    <circle cx="250" cy="65" r="22" fill="#9acd32"/>
    
    <rect x="310" y="30" width="270" height="170" fill="#9acd32" rx="8"/>
    <circle cx="370" cy="75" r="23" fill="#32cd32"/>
    <circle cx="430" cy="80" r="20" fill="#228b22"/>
    <circle cx="490" cy="70" r="25" fill="#32cd32"/>
    <circle cx="540" cy="85" r="18" fill="#9acd32"/>
    
    <!-- Céu sereno -->
    <rect x="30" y="210" width="270" height="170" fill="#b0e0e6" rx="8"/>
    <circle cx="100" cy="260" r="25" fill="#ffffff" opacity="0.6"/>
    <circle cx="180" cy="250" r="20" fill="#ffffff" opacity="0.5"/>
    <circle cx="240" cy="280" r="18" fill="#ffffff" opacity="0.4"/>
    
    <rect x="310" y="210" width="270" height="170" fill="#b0e0e6" rx="8"/>
    <circle cx="400" cy="270" r="22" fill="#ffffff" opacity="0.6"/>
    <circle cx="480" cy="260" r="18" fill="#ffffff" opacity="0.5"/>
    <circle cx="540" cy="290" r="20" fill="#ffffff" opacity="0.4"/>
  </g>
  
  <!-- Iluminação muito suave -->
  <circle cx="1024" cy="200" r="30" fill="#fff8dc" opacity="0.2"/>
  <circle cx="2048" cy="200" r="35" fill="#fff8dc" opacity="0.3"/>
  <circle cx="3072" cy="200" r="30" fill="#fff8dc" opacity="0.2"/>
  
  <!-- Efeitos de iluminação ambiente muito suaves -->
  <ellipse cx="2048" cy="700" rx="1400" ry="700" fill="url(#softLight)"/>
  <ellipse cx="600" cy="800" rx="350" ry="175" fill="url(#softLight)" opacity="0.5"/>
  <ellipse cx="3400" cy="800" rx="350" ry="175" fill="url(#softLight)" opacity="0.5"/>
  
  <!-- Efeito da fumaça do incenso -->
  <ellipse cx="2050" cy="900" rx="250" ry="500" fill="url(#incenseSmoke)"/>
  
  <!-- Reflexos mínimos no piso -->
  <ellipse cx="2048" cy="1700" rx="300" ry="35" fill="#ffffff" opacity="0.03"/>
  <ellipse cx="450" cy="1650" rx="150" ry="20" fill="#ffffff" opacity="0.02"/>
  <ellipse cx="3600" cy="1650" rx="120" ry="15" fill="#ffffff" opacity="0.02"/>
</svg>