<?xml version="1.0" encoding="UTF-8"?>
<svg width="4096" height="2048" viewBox="0 0 4096 2048" xmlns="http://www.w3.org/2000/svg">
  <defs>
    <linearGradient id="wallGradient" x1="0%" y1="0%" x2="0%" y2="100%">
      <stop offset="0%" style="stop-color:#f8f8f8;stop-opacity:1" />
      <stop offset="100%" style="stop-color:#e8e8e8;stop-opacity:1" />
    </linearGradient>
    <linearGradient id="floorGradient" x1="0%" y1="0%" x2="0%" y2="100%">
      <stop offset="0%" style="stop-color:#d2691e;stop-opacity:1" />
      <stop offset="100%" style="stop-color:#a0522d;stop-opacity:1" />
    </linearGradient>
    <radialGradient id="lightGradient" cx="50%" cy="20%" r="50%">
      <stop offset="0%" style="stop-color:#ffffff;stop-opacity:0.7" />
      <stop offset="100%" style="stop-color:#ffffff;stop-opacity:0" />
    </radialGradient>
    <linearGradient id="ceilingGradient" x1="0%" y1="0%" x2="0%" y2="100%">
      <stop offset="0%" style="stop-color:#ffffff;stop-opacity:1" />
      <stop offset="100%" style="stop-color:#f5f5f5;stop-opacity:1" />
    </linearGradient>
  </defs>
  
  <!-- Piso de madeira -->
  <rect x="0" y="1600" width="4096" height="448" fill="url(#floorGradient)"/>
  
  <!-- Padrão de madeira -->
  <g opacity="0.2">
    <rect x="0" y="1600" width="4096" height="6" fill="#8b4513"/>
    <rect x="0" y="1620" width="4096" height="6" fill="#8b4513"/>
    <rect x="0" y="1640" width="4096" height="6" fill="#8b4513"/>
    <rect x="0" y="1660" width="4096" height="6" fill="#8b4513"/>
    <rect x="0" y="1680" width="4096" height="6" fill="#8b4513"/>
  </g>
  
  <!-- Paredes -->
  <rect x="0" y="400" width="4096" height="1200" fill="url(#wallGradient)"/>
  
  <!-- Teto -->
  <rect x="0" y="0" width="4096" height="400" fill="url(#ceilingGradient)"/>
  
  <!-- Mesa de massagem central (premium) -->
  <g transform="translate(1800, 1400)">
    <!-- Base da mesa -->
    <rect x="0" y="0" width="500" height="200" fill="#8b4513" rx="30"/>
    <rect x="30" y="30" width="440" height="140" fill="#ffffff" rx="25"/>
    
    <!-- Superfície acolchoada -->
    <ellipse cx="250" cy="100" rx="220" ry="85" fill="#f5e6d3"/>
    <ellipse cx="250" cy="95" rx="200" ry="75" fill="#f8f0e3"/>
    
    <!-- Almofada para cabeça -->
    <ellipse cx="250" cy="50" rx="80" ry="40" fill="#ffffff"/>
    <ellipse cx="250" cy="45" rx="70" ry="35" fill="#f5f5f5"/>
    
    <!-- Controles da mesa -->
    <rect x="450" y="80" width="40" height="100" fill="#333" rx="5"/>
    <circle cx="470" cy="100" r="8" fill="#4169e1"/>
    <circle cx="470" cy="130" r="8" fill="#32cd32"/>
    <circle cx="470" cy="160" r="8" fill="#ff4500"/>
  </g>
  
  <!-- Armário de óleos essenciais (moderno) -->
  <g transform="translate(200, 800)">
    <rect x="0" y="0" width="300" height="600" fill="#ffffff" rx="15"/>
    <rect x="20" y="20" width="260" height="560" fill="#f8f8f8" rx="10"/>
    
    <!-- Prateleiras de vidro -->
    <rect x="40" y="120" width="220" height="8" fill="#e0e0e0" opacity="0.8"/>
    <rect x="40" y="220" width="220" height="8" fill="#e0e0e0" opacity="0.8"/>
    <rect x="40" y="320" width="220" height="8" fill="#e0e0e0" opacity="0.8"/>
    <rect x="40" y="420" width="220" height="8" fill="#e0e0e0" opacity="0.8"/>
    <rect x="40" y="520" width="220" height="8" fill="#e0e0e0" opacity="0.8"/>
    
    <!-- Frascos de óleos essenciais -->
    <circle cx="80" cy="80" r="18" fill="#8b4513"/>
    <circle cx="120" cy="80" r="18" fill="#daa520"/>
    <circle cx="160" cy="80" r="18" fill="#228b22"/>
    <circle cx="200" cy="80" r="18" fill="#4169e1"/>
    <circle cx="240" cy="80" r="18" fill="#9932cc"/>
    
    <circle cx="80" cy="180" r="18" fill="#ff6347"/>
    <circle cx="120" cy="180" r="18" fill="#32cd32"/>
    <circle cx="160" cy="180" r="18" fill="#ff1493"/>
    <circle cx="200" cy="180" r="18" fill="#00ced1"/>
    <circle cx="240" cy="180" r="18" fill="#ffd700"/>
    
    <!-- Rótulos -->
    <rect x="60" y="100" width="40" height="15" fill="#ffffff" rx="2"/>
    <rect x="100" y="100" width="40" height="15" fill="#ffffff" rx="2"/>
    <rect x="140" y="100" width="40" height="15" fill="#ffffff" rx="2"/>
    <rect x="180" y="100" width="40" height="15" fill="#ffffff" rx="2"/>
    <rect x="220" y="100" width="40" height="15" fill="#ffffff" rx="2"/>
  </g>
  
  <!-- Estação de toalhas premium -->
  <g transform="translate(3600, 1000)">
    <rect x="0" y="0" width="200" height="400" fill="#ffffff" rx="15"/>
    <rect x="20" y="20" width="160" height="360" fill="#f8f8f8" rx="10"/>
    
    <!-- Aquecedor de toalhas -->
    <rect x="40" y="50" width="120" height="80" fill="#333" rx="8"/>
    <rect x="50" y="60" width="100" height="60" fill="#1a1a1a" rx="5"/>
    
    <!-- Display digital -->
    <rect x="70" y="75" width="60" height="20" fill="#000"/>
    <text x="100" y="88" text-anchor="middle" font-family="Arial" font-size="8" fill="#00ff00">45°C</text>
    
    <!-- Toalhas empilhadas -->
    <rect x="40" y="160" width="120" height="25" fill="#ffffff" rx="3"/>
    <rect x="40" y="195" width="120" height="25" fill="#f5f5f5" rx="3"/>
    <rect x="40" y="230" width="120" height="25" fill="#ffffff" rx="3"/>
    <rect x="40" y="265" width="120" height="25" fill="#f5f5f5" rx="3"/>
    <rect x="40" y="300" width="120" height="25" fill="#ffffff" rx="3"/>
  </g>
  
  <!-- Sistema de som e climatização -->
  <g transform="translate(3200, 500)">
    <rect x="0" y="0" width="200" height="120" fill="#333" rx="10"/>
    <rect x="15" y="15" width="170" height="90" fill="#1a1a1a" rx="8"/>
    
    <!-- Display -->
    <rect x="30" y="30" width="80" height="40" fill="#000"/>
    <text x="70" y="50" text-anchor="middle" font-family="Arial" font-size="6" fill="#00ffff">♪ Relaxing</text>
    <text x="70" y="60" text-anchor="middle" font-family="Arial" font-size="6" fill="#00ffff">23°C</text>
    
    <!-- Controles -->
    <circle cx="140" cy="40" r="12" fill="#4169e1"/>
    <circle cx="170" cy="40" r="12" fill="#32cd32"/>
    <circle cx="140" cy="70" r="12" fill="#ff4500"/>
    <circle cx="170" cy="70" r="12" fill="#ffd700"/>
  </g>
  
  <!-- Janela com vista relaxante -->
  <g transform="translate(1400, 450)">
    <rect x="0" y="0" width="600" height="400" fill="#ffffff" rx="20"/>
    <rect x="20" y="20" width="560" height="360" fill="#e6f3ff" rx="15"/>
    
    <!-- Divisórias -->
    <rect x="295" y="20" width="10" height="360" fill="#ffffff"/>
    <rect x="20" y="195" width="560" height="10" fill="#ffffff"/>
    
    <!-- Vista de jardim tropical -->
    <rect x="30" y="30" width="270" height="170" fill="#228b22" rx="8"/>
    <circle cx="80" cy="80" r="25" fill="#32cd32"/>
    <circle cx="150" cy="60" r="30" fill="#9acd32"/>
    <circle cx="220" cy="90" r="20" fill="#32cd32"/>
    <circle cx="200" cy="50" r="18" fill="#7cfc00"/>
    
    <rect x="310" y="30" width="270" height="170" fill="#228b22" rx="8"/>
    <circle cx="380" cy="70" r="28" fill="#32cd32"/>
    <circle cx="450" cy="85" r="22" fill="#9acd32"/>
    <circle cx="520" cy="65" r="35" fill="#32cd32"/>
    
    <!-- Céu -->
    <rect x="30" y="210" width="270" height="170" fill="#87ceeb" rx="8"/>
    <circle cx="100" cy="250" r="20" fill="#ffffff" opacity="0.8"/>
    <circle cx="180" cy="240" r="25" fill="#ffffff" opacity="0.7"/>
    <circle cx="250" cy="270" r="22" fill="#ffffff" opacity="0.6"/>
    
    <rect x="310" y="210" width="270" height="170" fill="#87ceeb" rx="8"/>
    <circle cx="400" cy="260" r="23" fill="#ffffff" opacity="0.8"/>
    <circle cx="480" cy="250" r="20" fill="#ffffff" opacity="0.7"/>
    <circle cx="550" cy="280" r="25" fill="#ffffff" opacity="0.6"/>
  </g>
  
  <!-- Plantas decorativas -->
  <g transform="translate(100, 1200)">
    <rect x="0" y="0" width="80" height="120" fill="#8b4513" rx="10"/>
    <ellipse cx="40" cy="15" rx="50" ry="25" fill="#654321"/>
    <circle cx="40" cy="-40" r="45" fill="#228b22"/>
    <circle cx="20" cy="-65" r="30" fill="#32cd32"/>
    <circle cx="60" cy="-60" r="35" fill="#32cd32"/>
    <circle cx="40" cy="-90" r="22" fill="#9acd32"/>
  </g>
  
  <g transform="translate(3900, 1300)">
    <rect x="0" y="0" width="80" height="120" fill="#8b4513" rx="10"/>
    <ellipse cx="40" cy="15" rx="50" ry="25" fill="#654321"/>
    <circle cx="40" cy="-40" r="45" fill="#228b22"/>
    <circle cx="25" cy="-65" r="30" fill="#32cd32"/>
    <circle cx="55" cy="-60" r="35" fill="#32cd32"/>
    <circle cx="40" cy="-90" r="22" fill="#9acd32"/>
  </g>
  
  <!-- Velas aromáticas -->
  <g transform="translate(600, 1300)">
    <rect x="0" y="0" width="25" height="60" fill="#f5deb3" rx="3"/>
    <ellipse cx="12" cy="8" rx="12" ry="4" fill="#8b4513"/>
    <circle cx="12" cy="-8" r="4" fill="#ffa500" opacity="0.9"/>
    
    <rect x="50" y="0" width="25" height="55" fill="#f5deb3" rx="3"/>
    <ellipse cx="62" cy="8" rx="12" ry="4" fill="#8b4513"/>
    <circle cx="62" cy="-8" r="4" fill="#ffa500" opacity="0.9"/>
    
    <rect x="100" y="0" width="25" height="65" fill="#f5deb3" rx="3"/>
    <ellipse cx="112" cy="8" rx="12" ry="4" fill="#8b4513"/>
    <circle cx="112" cy="-8" r="4" fill="#ffa500" opacity="0.9"/>
  </g>
  
  <!-- Iluminação embutida no teto -->
  <circle cx="800" cy="200" r="35" fill="#ffffff" opacity="0.7"/>
  <circle cx="1400" cy="200" r="40" fill="#ffffff" opacity="0.8"/>
  <circle cx="2048" cy="200" r="45" fill="#ffffff" opacity="0.9"/>
  <circle cx="2700" cy="200" r="40" fill="#ffffff" opacity="0.8"/>
  <circle cx="3300" cy="200" r="35" fill="#ffffff" opacity="0.7"/>
  
  <!-- Spots direcionais -->
  <circle cx="600" cy="300" r="12" fill="#fff8dc" opacity="0.6"/>
  <circle cx="1200" cy="300" r="12" fill="#fff8dc" opacity="0.6"/>
  <circle cx="1800" cy="300" r="12" fill="#fff8dc" opacity="0.6"/>
  <circle cx="2400" cy="300" r="12" fill="#fff8dc" opacity="0.6"/>
  <circle cx="3000" cy="300" r="12" fill="#fff8dc" opacity="0.6"/>
  <circle cx="3600" cy="300" r="12" fill="#fff8dc" opacity="0.6"/>
  
  <!-- Efeitos de iluminação ambiente -->
  <ellipse cx="2048" cy="600" rx="1000" ry="500" fill="url(#lightGradient)"/>
  <ellipse cx="700" cy="700" rx="300" ry="150" fill="url(#lightGradient)" opacity="0.4"/>
  <ellipse cx="3400" cy="700" rx="300" ry="150" fill="url(#lightGradient)" opacity="0.4"/>
  
  <!-- Reflexos suaves no piso -->
  <ellipse cx="2048" cy="1750" rx="300" ry="40" fill="#ffffff" opacity="0.12"/>
  <ellipse cx="450" cy="1700" rx="150" ry="25" fill="#ffffff" opacity="0.08"/>
  <ellipse cx="3650" cy="1700" rx="120" ry="20" fill="#ffffff" opacity="0.08"/>
</svg>