<?xml version="1.0" encoding="UTF-8"?>
<svg width="4096" height="2048" viewBox="0 0 4096 2048" xmlns="http://www.w3.org/2000/svg">
  <!-- Background gradient -->
  <defs>
    <linearGradient id="wallGradient" x1="0%" y1="0%" x2="0%" y2="100%">
      <stop offset="0%" style="stop-color:#f5f2ea;stop-opacity:1" />
      <stop offset="100%" style="stop-color:#e9e4d8;stop-opacity:1" />
    </linearGradient>
    <linearGradient id="floorGradient" x1="0%" y1="0%" x2="0%" y2="100%">
      <stop offset="0%" style="stop-color:#a0522d;stop-opacity:1" />
      <stop offset="100%" style="stop-color:#8b4513;stop-opacity:1" />
    </linearGradient>
    <radialGradient id="lightGradient" cx="50%" cy="25%" r="45%">
      <stop offset="0%" style="stop-color:#fff8dc;stop-opacity:0.7" />
      <stop offset="100%" style="stop-color:#fff8dc;stop-opacity:0" />
    </radialGradient>
    <linearGradient id="waterGradient" x1="0%" y1="0%" x2="100%" y2="0%">
      <stop offset="0%" style="stop-color:#4682b4;stop-opacity:1" />
      <stop offset="50%" style="stop-color:#87ceeb;stop-opacity:1" />
      <stop offset="100%" style="stop-color:#4682b4;stop-opacity:1" />
    </linearGradient>
  </defs>
  
  <!-- Floor -->
  <rect x="0" y="1450" width="4096" height="598" fill="url(#floorGradient)"/>
  
  <!-- Walls -->
  <rect x="0" y="180" width="4096" height="1270" fill="url(#wallGradient)"/>
  
  <!-- Large comfortable sofa (left side) -->
  <g transform="translate(300, 1150)">
    <!-- Sofa base -->
    <rect x="0" y="0" width="500" height="200" fill="#8b4513" rx="25"/>
    <rect x="30" y="30" width="440" height="140" fill="#daa520" rx="20"/>
    
    <!-- Back cushions -->
    <rect x="50" y="20" width="80" height="100" fill="#f4a460" rx="15"/>
    <rect x="150" y="20" width="80" height="100" fill="#f4a460" rx="15"/>
    <rect x="250" y="20" width="80" height="100" fill="#f4a460" rx="15"/>
    <rect x="350" y="20" width="80" height="100" fill="#f4a460" rx="15"/>
    
    <!-- Seat cushions -->
    <rect x="50" y="80" width="80" height="80" fill="#f5deb3" rx="10"/>
    <rect x="150" y="80" width="80" height="80" fill="#f5deb3" rx="10"/>
    <rect x="250" y="80" width="80" height="80" fill="#f5deb3" rx="10"/>
    <rect x="350" y="80" width="80" height="80" fill="#f5deb3" rx="10"/>
    
    <!-- Throw pillows -->
    <circle cx="100" cy="60" r="25" fill="#cd853f"/>
    <circle cx="300" cy="60" r="25" fill="#daa520"/>
  </g>
  
  <!-- Water fountain (center) -->
  <g transform="translate(1850, 1250)">
    <!-- Base -->
    <circle cx="100" cy="100" r="80" fill="#696969"/>
    <circle cx="100" cy="95" r="70" fill="#778899"/>
    
    <!-- Water basin -->
    <circle cx="100" cy="90" r="60" fill="url(#waterGradient)"/>
    
    <!-- Center pillar -->
    <rect x="90" y="40" width="20" height="50" fill="#696969"/>
    <circle cx="100" cy="40" r="12" fill="#778899"/>
    
    <!-- Water streams -->
    <path d="M100,40 Q95,50 100,60 Q105,70 100,80" stroke="#87ceeb" stroke-width="2" fill="none" opacity="0.7"/>
    <path d="M100,40 Q105,50 100,60 Q95,70 100,80" stroke="#87ceeb" stroke-width="2" fill="none" opacity="0.7"/>
    
    <!-- Ripples -->
    <circle cx="100" cy="90" r="20" fill="none" stroke="#87ceeb" stroke-width="1" opacity="0.3"/>
    <circle cx="100" cy="90" r="35" fill="none" stroke="#87ceeb" stroke-width="1" opacity="0.2"/>
    <circle cx="100" cy="90" r="50" fill="none" stroke="#87ceeb" stroke-width="1" opacity="0.1"/>
  </g>
  
  <!-- Comfortable chairs (right side) -->
  <g transform="translate(3200, 1150)">
    <!-- Chair 1 -->
    <rect x="0" y="0" width="150" height="180" fill="#8b4513" rx="20"/>
    <rect x="15" y="15" width="120" height="150" fill="#daa520" rx="15"/>
    <circle cx="75" cy="90" r="40" fill="#f4a460"/>
    
    <!-- Chair 2 -->
    <rect x="200" y="0" width="150" height="180" fill="#8b4513" rx="20"/>
    <rect x="215" y="15" width="120" height="150" fill="#daa520" rx="15"/>
    <circle cx="275" cy="90" r="40" fill="#f4a460"/>
    
    <!-- Small table between chairs -->
    <circle cx="175" cy="220" r="40" fill="#654321"/>
    <rect x="170" y="260" width="10" height="40" fill="#8b4513"/>
    
    <!-- Tea set on table -->
    <circle cx="165" cy="210" r="8" fill="#f5deb3"/>
    <circle cx="185" cy="210" r="8" fill="#f5deb3"/>
    <rect x="170" y="200" width="10" height="15" fill="#8b4513"/>
  </g>
  
  <!-- Large windows with nature view -->
  <g transform="translate(1400, 300)">
    <!-- Window frame -->
    <rect x="0" y="0" width="600" height="400" fill="#8b4513" rx="15"/>
    <rect x="20" y="20" width="560" height="360" fill="#87ceeb" rx="10"/>
    
    <!-- Window dividers -->
    <rect x="295" y="20" width="10" height="360" fill="#8b4513"/>
    <rect x="20" y="195" width="560" height="10" fill="#8b4513"/>
    
    <!-- Nature view through window -->
    <rect x="30" y="30" width="270" height="170" fill="#228b22" rx="5"/>
    <circle cx="80" cy="80" r="20" fill="#32cd32"/>
    <circle cx="150" cy="60" r="25" fill="#32cd32"/>
    <circle cx="220" cy="90" r="18" fill="#32cd32"/>
    <circle cx="200" cy="50" r="15" fill="#9acd32"/>
    
    <rect x="310" y="30" width="270" height="170" fill="#228b22" rx="5"/>
    <circle cx="380" cy="70" r="22" fill="#32cd32"/>
    <circle cx="450" cy="85" r="20" fill="#32cd32"/>
    <circle cx="520" cy="65" r="25" fill="#32cd32"/>
    
    <!-- Sky -->
    <rect x="30" y="210" width="270" height="170" fill="#87ceeb" rx="5"/>
    <circle cx="100" cy="250" r="15" fill="#fff" opacity="0.8"/>
    <circle cx="180" cy="240" r="20" fill="#fff" opacity="0.7"/>
    <circle cx="250" cy="260" r="18" fill="#fff" opacity="0.6"/>
    
    <rect x="310" y="210" width="270" height="170" fill="#87ceeb" rx="5"/>
    <circle cx="400" cy="250" r="18" fill="#fff" opacity="0.8"/>
    <circle cx="480" cy="240" r="15" fill="#fff" opacity="0.7"/>
    <circle cx="550" cy="270" r="20" fill="#fff" opacity="0.6"/>
  </g>
  
  <!-- Floor plants -->
  <g transform="translate(150, 1000)">
    <rect x="0" y="0" width="80" height="100" fill="#8b4513" rx="5"/>
    <ellipse cx="40" cy="10" rx="45" ry="20" fill="#654321"/>
    <circle cx="40" cy="-30" r="35" fill="#228b22"/>
    <circle cx="20" cy="-50" r="25" fill="#32cd32"/>
    <circle cx="60" cy="-45" r="30" fill="#32cd32"/>
    <circle cx="40" cy="-65" r="20" fill="#9acd32"/>
  </g>
  
  <g transform="translate(3850, 1000)">
    <rect x="0" y="0" width="80" height="100" fill="#8b4513" rx="5"/>
    <ellipse cx="40" cy="10" rx="45" ry="20" fill="#654321"/>
    <circle cx="40" cy="-30" r="35" fill="#228b22"/>
    <circle cx="25" cy="-50" r="25" fill="#32cd32"/>
    <circle cx="55" cy="-45" r="30" fill="#32cd32"/>
    <circle cx="40" cy="-65" r="20" fill="#9acd32"/>
  </g>
  
  <!-- Ceiling -->
  <rect x="0" y="0" width="4096" height="180" fill="#f8f8ff"/>
  
  <!-- Soft lighting -->
  <circle cx="1024" cy="90" r="45" fill="#fff8dc" opacity="0.5"/>
  <circle cx="2048" cy="90" r="50" fill="#fff8dc" opacity="0.6"/>
  <circle cx="3072" cy="90" r="45" fill="#fff8dc" opacity="0.5"/>
  
  <!-- Ambient lighting effects -->
  <ellipse cx="2048" cy="400" rx="800" ry="400" fill="url(#lightGradient)"/>
  <ellipse cx="700" cy="500" rx="400" ry="200" fill="url(#lightGradient)" opacity="0.3"/>
  <ellipse cx="3400" cy="500" rx="400" ry="200" fill="url(#lightGradient)" opacity="0.3"/>
  
  <!-- Floor reflections -->
  <ellipse cx="2048" cy="1650" rx="250" ry="40" fill="#ffffff" opacity="0.1"/>
  <ellipse cx="550" cy="1600" rx="150" ry="25" fill="#ffffff" opacity="0.08"/>
  <ellipse cx="3450" cy="1600" rx="120" ry="20" fill="#ffffff" opacity="0.08"/>
  <ellipse cx="2000" cy="1600" rx="100" ry="15" fill="#ffffff" opacity="0.06"/>
</svg>