<?xml version="1.0" encoding="UTF-8"?>
<svg width="4096" height="2048" viewBox="0 0 4096 2048" xmlns="http://www.w3.org/2000/svg">
  <defs>
    <!-- Gradients baseados na imagem real -->
    <linearGradient id="wallGradient" x1="0%" y1="0%" x2="0%" y2="100%">
      <stop offset="0%" style="stop-color:#f8f8f8;stop-opacity:1" />
      <stop offset="100%" style="stop-color:#e5e5e5;stop-opacity:1" />
    </linearGradient>
    <linearGradient id="floorGradient" x1="0%" y1="0%" x2="0%" y2="100%">
      <stop offset="0%" style="stop-color:#cd853f;stop-opacity:1" />
      <stop offset="100%" style="stop-color:#a0522d;stop-opacity:1" />
    </linearGradient>
    <linearGradient id="carpetGradient" x1="0%" y1="0%" x2="0%" y2="100%">
      <stop offset="0%" style="stop-color:#696969;stop-opacity:1" />
      <stop offset="100%" style="stop-color:#555555;stop-opacity:1" />
    </linearGradient>
    <radialGradient id="lightGradient" cx="50%" cy="15%" r="60%">
      <stop offset="0%" style="stop-color:#ffffff;stop-opacity:0.8" />
      <stop offset="100%" style="stop-color:#ffffff;stop-opacity:0" />
    </radialGradient>
    <linearGradient id="ceilingGradient" x1="0%" y1="0%" x2="0%" y2="100%">
      <stop offset="0%" style="stop-color:#ffffff;stop-opacity:1" />
      <stop offset="100%" style="stop-color:#f0f0f0;stop-opacity:1" />
    </linearGradient>
  </defs>
  
  <!-- Piso de madeira -->
  <rect x="0" y="1500" width="4096" height="548" fill="url(#floorGradient)"/>
  
  <!-- Padrão de madeira no piso -->
  <g opacity="0.3">
    <rect x="0" y="1500" width="4096" height="8" fill="#8b4513"/>
    <rect x="0" y="1520" width="4096" height="8" fill="#8b4513"/>
    <rect x="0" y="1540" width="4096" height="8" fill="#8b4513"/>
    <rect x="0" y="1560" width="4096" height="8" fill="#8b4513"/>
    <rect x="0" y="1580" width="4096" height="8" fill="#8b4513"/>
    <rect x="0" y="1600" width="4096" height="8" fill="#8b4513"/>
    <rect x="0" y="1620" width="4096" height="8" fill="#8b4513"/>
    <rect x="0" y="1640" width="4096" height="8" fill="#8b4513"/>
    <rect x="0" y="1660" width="4096" height="8" fill="#8b4513"/>
    <rect x="0" y="1680" width="4096" height="8" fill="#8b4513"/>
  </g>
  
  <!-- Tapete cinza central -->
  <ellipse cx="2048" cy="1650" rx="600" ry="120" fill="url(#carpetGradient)"/>
  
  <!-- Paredes -->
  <rect x="0" y="300" width="4096" height="1200" fill="url(#wallGradient)"/>
  
  <!-- Teto alto curvo -->
  <rect x="0" y="0" width="4096" height="300" fill="url(#ceilingGradient)"/>
  <path d="M 0,300 Q 2048,150 4096,300" fill="url(#ceilingGradient)"/>
  
  <!-- Balcão de recepção central (branco com madeira) -->
  <g transform="translate(1800, 1350)">
    <!-- Base branca -->
    <rect x="0" y="0" width="500" height="150" fill="#ffffff" rx="20"/>
    <rect x="10" y="10" width="480" height="130" fill="#f8f8f8" rx="15"/>
    
    <!-- Topo de madeira -->
    <rect x="0" y="0" width="500" height="40" fill="#8b4513" rx="20"/>
    <rect x="10" y="5" width="480" height="30" fill="#a0522d" rx="15"/>
    
    <!-- Logo SPA KENYLSON -->
    <rect x="200" y="-80" width="100" height="30" fill="#ffffff" rx="5"/>
    <text x="250" y="-60" text-anchor="middle" font-family="Arial" font-size="12" fill="#333">SPA KENYLSON</text>
    
    <!-- Computador -->
    <rect x="400" y="-40" width="80" height="50" fill="#333" rx="5"/>
    <rect x="405" y="-35" width="70" height="40" fill="#000"/>
    
    <!-- Plantas decorativas -->
    <circle cx="80" cy="-20" r="20" fill="#228b22"/>
    <rect x="75" y="-20" width="10" height="25" fill="#8b4513"/>
    
    <circle cx="420" cy="-20" r="20" fill="#228b22"/>
    <rect x="415" y="-20" width="10" height="25" fill="#8b4513"/>
  </g>
  
  <!-- Área de produtos (parede esquerda) -->
  <g transform="translate(200, 600)">
    <!-- Prateleiras brancas -->
    <rect x="0" y="0" width="400" height="600" fill="#ffffff" rx="10"/>
    <rect x="20" y="20" width="360" height="560" fill="#f8f8f8" rx="5"/>
    
    <!-- Prateleiras de madeira -->
    <rect x="40" y="100" width="320" height="20" fill="#8b4513"/>
    <rect x="40" y="200" width="320" height="20" fill="#8b4513"/>
    <rect x="40" y="300" width="320" height="20" fill="#8b4513"/>
    <rect x="40" y="400" width="320" height="20" fill="#8b4513"/>
    <rect x="40" y="500" width="320" height="20" fill="#8b4513"/>
    
    <!-- Produtos nas prateleiras -->
    <!-- Primeira prateleira -->
    <rect x="60" y="70" width="30" height="25" fill="#ff6b6b" rx="3"/>
    <rect x="100" y="70" width="30" height="25" fill="#4ecdc4" rx="3"/>
    <rect x="140" y="70" width="30" height="25" fill="#45b7d1" rx="3"/>
    <rect x="180" y="70" width="30" height="25" fill="#96ceb4" rx="3"/>
    <rect x="220" y="70" width="30" height="25" fill="#feca57" rx="3"/>
    <rect x="260" y="70" width="30" height="25" fill="#ff9ff3" rx="3"/>
    <rect x="300" y="70" width="30" height="25" fill="#54a0ff" rx="3"/>
    
    <!-- Segunda prateleira -->
    <rect x="60" y="170" width="30" height="25" fill="#5f27cd" rx="3"/>
    <rect x="100" y="170" width="30" height="25" fill="#00d2d3" rx="3"/>
    <rect x="140" y="170" width="30" height="25" fill="#ff9f43" rx="3"/>
    <rect x="180" y="170" width="30" height="25" fill="#10ac84" rx="3"/>
    <rect x="220" y="170" width="30" height="25" fill="#ee5a6f" rx="3"/>
    <rect x="260" y="170" width="30" height="25" fill="#0abde3" rx="3"/>
    <rect x="300" y="170" width="30" height="25" fill="#f368e0" rx="3"/>
    
    <!-- Terceira prateleira -->
    <rect x="60" y="270" width="30" height="25" fill="#fda7df" rx="3"/>
    <rect x="100" y="270" width="30" height="25" fill="#fd79a8" rx="3"/>
    <rect x="140" y="270" width="30" height="25" fill="#6c5ce7" rx="3"/>
    <rect x="180" y="270" width="30" height="25" fill="#a29bfe" rx="3"/>
    <rect x="220" y="270" width="30" height="25" fill="#74b9ff" rx="3"/>
    <rect x="260" y="270" width="30" height="25" fill="#81ecec" rx="3"/>
    <rect x="300" y="270" width="30" height="25" fill="#00b894" rx="3"/>
  </g>
  
  <!-- Zona de relaxamento (direita) -->
  <g transform="translate(2800, 1200)">
    <!-- Sofá bege grande -->
    <rect x="0" y="0" width="400" height="200" fill="#d2b48c" rx="25"/>
    <rect x="20" y="20" width="360" height="160" fill="#f5e6d3" rx="20"/>
    
    <!-- Almofadas do sofá -->
    <rect x="50" y="30" width="80" height="80" fill="#e6d7c3" rx="15"/>
    <rect x="140" y="30" width="80" height="80" fill="#e6d7c3" rx="15"/>
    <rect x="230" y="30" width="80" height="80" fill="#e6d7c3" rx="15"/>
    <rect x="320" y="30" width="50" height="80" fill="#e6d7c3" rx="15"/>
    
    <!-- Almofadas decorativas -->
    <circle cx="90" cy="50" r="20" fill="#d2b48c"/>
    <circle cx="270" cy="50" r="20" fill="#d2b48c"/>
    
    <!-- Mesa de centro -->
    <rect x="150" y="250" width="120" height="80" fill="#8b4513" rx="10"/>
    <rect x="160" y="260" width="100" height="60" fill="#a0522d" rx="8"/>
    
    <!-- Revistas na mesa -->
    <rect x="170" y="250" width="30" height="20" fill="#4169e1" rx="2"/>
    <rect x="210" y="250" width="30" height="20" fill="#32cd32" rx="2"/>
  </g>
  
  <!-- Poltrona adicional -->
  <g transform="translate(3400, 1250)">
    <rect x="0" y="0" width="150" height="150" fill="#d2b48c" rx="20"/>
    <rect x="15" y="15" width="120" height="120" fill="#f5e6d3" rx="15"/>
    <circle cx="75" cy="75" r="35" fill="#e6d7c3"/>
  </g>
  
  <!-- Janelas grandes (parede de fundo) -->
  <g transform="translate(1200, 350)">
    <!-- Janela principal -->
    <rect x="0" y="0" width="800" height="600" fill="#ffffff" rx="20"/>
    <rect x="20" y="20" width="760" height="560" fill="#e6f3ff" rx="15"/>
    
    <!-- Divisórias da janela -->
    <rect x="395" y="20" width="10" height="560" fill="#ffffff"/>
    <rect x="20" y="295" width="760" height="10" fill="#ffffff"/>
    
    <!-- Vista externa através da janela -->
    <rect x="30" y="30" width="370" height="270" fill="#87ceeb" rx="10"/>
    <circle cx="100" cy="100" r="20" fill="#ffffff" opacity="0.7"/>
    <circle cx="200" cy="80" r="15" fill="#ffffff" opacity="0.6"/>
    <circle cx="300" cy="120" r="25" fill="#ffffff" opacity="0.8"/>
    
    <rect x="410" y="30" width="370" height="270" fill="#87ceeb" rx="10"/>
    <circle cx="500" cy="90" r="18" fill="#ffffff" opacity="0.7"/>
    <circle cx="600" cy="110" r="22" fill="#ffffff" opacity="0.6"/>
    <circle cx="700" cy="70" r="20" fill="#ffffff" opacity="0.8"/>
    
    <!-- Parte inferior das janelas -->
    <rect x="30" y="310" width="370" height="270" fill="#87ceeb" rx="10"/>
    <rect x="410" y="310" width="370" height="270" fill="#87ceeb" rx="10"/>
  </g>
  
  <!-- Janelas laterais menores -->
  <g transform="translate(50, 400)">
    <rect x="0" y="0" width="120" height="400" fill="#ffffff" rx="15"/>
    <rect x="10" y="10" width="100" height="380" fill="#e6f3ff" rx="10"/>
    <rect x="55" y="10" width="10" height="380" fill="#ffffff"/>
    <rect x="10" y="195" width="100" height="10" fill="#ffffff"/>
  </g>
  
  <g transform="translate(3900, 400)">
    <rect x="0" y="0" width="120" height="400" fill="#ffffff" rx="15"/>
    <rect x="10" y="10" width="100" height="380" fill="#e6f3ff" rx="10"/>
    <rect x="55" y="10" width="10" height="380" fill="#ffffff"/>
    <rect x="10" y="195" width="100" height="10" fill="#ffffff"/>
  </g>
  
  <!-- Plantas grandes -->
  <g transform="translate(100, 1100)">
    <rect x="0" y="0" width="80" height="120" fill="#8b4513" rx="10"/>
    <ellipse cx="40" cy="15" rx="50" ry="25" fill="#654321"/>
    <circle cx="40" cy="-40" r="50" fill="#228b22"/>
    <circle cx="20" cy="-70" r="35" fill="#32cd32"/>
    <circle cx="60" cy="-65" r="40" fill="#32cd32"/>
    <circle cx="40" cy="-100" r="25" fill="#9acd32"/>
  </g>
  
  <g transform="translate(3850, 1100)">
    <rect x="0" y="0" width="80" height="120" fill="#8b4513" rx="10"/>
    <ellipse cx="40" cy="15" rx="50" ry="25" fill="#654321"/>
    <circle cx="40" cy="-40" r="50" fill="#228b22"/>
    <circle cx="25" cy="-70" r="35" fill="#32cd32"/>
    <circle cx="55" cy="-65" r="40" fill="#32cd32"/>
    <circle cx="40" cy="-100" r="25" fill="#9acd32"/>
  </g>
  
  <!-- Arte na parede (quadros azuis como na foto) -->
  <g transform="translate(2400, 500)">
    <rect x="0" y="0" width="200" height="150" fill="#ffffff" rx="10"/>
    <rect x="15" y="15" width="170" height="120" fill="#4169e1" rx="5"/>
    <circle cx="100" cy="75" r="30" fill="#1e90ff"/>
    <circle cx="80" cy="60" r="15" fill="#00bfff"/>
    <circle cx="120" cy="90" r="20" fill="#87ceeb"/>
  </g>
  
  <g transform="translate(2650, 500)">
    <rect x="0" y="0" width="200" height="150" fill="#ffffff" rx="10"/>
    <rect x="15" y="15" width="170" height="120" fill="#4169e1" rx="5"/>
    <circle cx="100" cy="75" r="25" fill="#1e90ff"/>
    <circle cx="75" cy="55" r="18" fill="#00bfff"/>
    <circle cx="125" cy="95" r="22" fill="#87ceeb"/>
  </g>
  
  <!-- Iluminação no teto -->
  <circle cx="1024" cy="150" r="50" fill="#ffffff" opacity="0.8"/>
  <circle cx="2048" cy="150" r="60" fill="#ffffff" opacity="0.9"/>
  <circle cx="3072" cy="150" r="50" fill="#ffffff" opacity="0.8"/>
  
  <!-- Spots de iluminação -->
  <circle cx="600" cy="200" r="15" fill="#fff8dc" opacity="0.6"/>
  <circle cx="1200" cy="200" r="15" fill="#fff8dc" opacity="0.6"/>
  <circle cx="1800" cy="200" r="15" fill="#fff8dc" opacity="0.6"/>
  <circle cx="2400" cy="200" r="15" fill="#fff8dc" opacity="0.6"/>
  <circle cx="3000" cy="200" r="15" fill="#fff8dc" opacity="0.6"/>
  <circle cx="3600" cy="200" r="15" fill="#fff8dc" opacity="0.6"/>
  
  <!-- Efeitos de iluminação geral -->
  <ellipse cx="2048" cy="500" rx="1200" ry="600" fill="url(#lightGradient)"/>
  <ellipse cx="800" cy="600" rx="400" ry="200" fill="url(#lightGradient)" opacity="0.4"/>
  <ellipse cx="3300" cy="600" rx="400" ry="200" fill="url(#lightGradient)" opacity="0.4"/>
  
  <!-- Reflexos no piso -->
  <ellipse cx="2048" cy="1700" rx="400" ry="60" fill="#ffffff" opacity="0.15"/>
  <ellipse cx="550" cy="1650" rx="200" ry="30" fill="#ffffff" opacity="0.1"/>
  <ellipse cx="3450" cy="1650" rx="200" ry="30" fill="#ffffff" opacity="0.1"/>
  <ellipse cx="2050" cy="1650" rx="150" ry="25" fill="#ffffff" opacity="0.08"/>
</svg>